<?xml version="1.0" encoding="UTF-8" standalone="no"?>
<!-- Generator: Adobe Illustrator 23.0.2, SVG Export Plug-In . SVG Version: 6.00 Build 0)  -->

<svg
   xmlns:dc="http://purl.org/dc/elements/1.1/"
   xmlns:cc="http://creativecommons.org/ns#"
   xmlns:rdf="http://www.w3.org/1999/02/22-rdf-syntax-ns#"
   xmlns:svg="http://www.w3.org/2000/svg"
   xmlns="http://www.w3.org/2000/svg"
   xmlns:sodipodi="http://sodipodi.sourceforge.net/DTD/sodipodi-0.dtd"
   xmlns:inkscape="http://www.inkscape.org/namespaces/inkscape"
   version="1.1"
   id="Layer_1"
   x="0px"
   y="0px"
   viewBox="0 0 825.99999 200"
   xml:space="preserve"
   sodipodi:docname="render logo.svg"
   width="826"
   height="200"
   inkscape:export-filename="/home/naiymu/Downloads/render logo.png"
   inkscape:export-xdpi="96"
   inkscape:export-ydpi="96"
   inkscape:version="0.92.5 (2060ec1f9f, 2020-04-08)"><metadata
   id="metadata48"><rdf:RDF><cc:Work
       rdf:about=""><dc:format>image/svg+xml</dc:format><dc:type
         rdf:resource="http://purl.org/dc/dcmitype/StillImage" /><dc:title /></cc:Work></rdf:RDF></metadata><defs
   id="defs46" /><sodipodi:namedview
   pagecolor="#ffffff"
   bordercolor="#666666"
   borderopacity="1"
   objecttolerance="10"
   gridtolerance="10"
   guidetolerance="10"
   inkscape:pageopacity="0"
   inkscape:pageshadow="2"
   inkscape:window-width="1920"
   inkscape:window-height="1007"
   id="namedview44"
   showgrid="false"
   fit-margin-top="0"
   fit-margin-left="0"
   fit-margin-right="0"
   fit-margin-bottom="0"
   showguides="true"
   inkscape:guide-bbox="true"
   inkscape:snap-page="true"
   inkscape:zoom="0.36933265"
   inkscape:cx="-135.85606"
   inkscape:cy="119.32462"
   inkscape:window-x="0"
   inkscape:window-y="24"
   inkscape:window-maximized="1"
   inkscape:current-layer="g16"><sodipodi:guide
     position="32.5,273.46621"
     orientation="1,0"
     id="guide858"
     inkscape:locked="false"
     inkscape:label=""
     inkscape:color="rgb(0,0,255)" /><sodipodi:guide
     position="258.96621,939.5324"
     orientation="0,1"
     id="guide860"
     inkscape:locked="false" /><sodipodi:guide
     position="-200.361,14.5"
     orientation="0,1"
     id="guide862"
     inkscape:locked="false"
     inkscape:label=""
     inkscape:color="rgb(0,0,255)" /><sodipodi:guide
     position="793.40738,110.50336"
     orientation="1,0"
     id="guide866"
     inkscape:locked="false"
     inkscape:label=""
     inkscape:color="rgb(0,0,255)" /><sodipodi:guide
     position="380.99596,29"
     orientation="0,1"
     id="guide872"
     inkscape:locked="false"
     inkscape:label=""
     inkscape:color="rgb(0,0,255)" /></sodipodi:namedview>
<style
   type="text/css"
   id="style2">
	.st0{enable-background:new    ;}
	.st1{fill:#3F4358;}
	.st2{fill:#46E3B7;}
</style>
<g
   id="Group_2766"
   transform="translate(-15905.406,-8446.9241)">
	<g
   class="st0"
   id="g16"
   style="enable-background:new">
		<rect
   style="opacity:1;fill:#000000;fill-opacity:1;fill-rule:evenodd;stroke:none;stroke-width:2.95734334;stroke-linecap:round;stroke-miterlimit:4;stroke-dasharray:none;stroke-dashoffset:0;stroke-opacity:1;paint-order:markers fill stroke"
   id="rect864"
   width="825.99976"
   height="200"
   x="15905.406"
   y="8446.9238"
   ry="2.4498601e-07" /><path
   class="st1"
   d="m 16200.511,8533.0241 c -10,0 -17.8,2.6 -25.5,6.7 v 74.4 c 0,2 -1.7,3.9 -3.7,3.9 h -17 c -2,0 -3.7,-1.8 -3.7,-3.9 v -96.8 c 0,-2 1.7,-3.7 3.7,-3.7 h 16.1 c 2,0 3.7,1.7 3.7,3.7 v 3.9 c 9.1,-7 19.1,-8.9 26.5,-8.9 2,0 3.7,1.7 3.7,3.7 v 13.3 c -0.1,2 -1.8,3.7 -3.8,3.7 z"
   id="path4"
   inkscape:connector-curvature="0"
   style="fill:#ffffff;fill-opacity:1" />
		<path
   class="st1"
   d="m 16298.011,8574.2241 h -60.3 v 0.6 c 0,10.7 4.4,23.5 22.2,23.5 13.5,0 26.3,-1.1 34,-1.9 0.2,0 0.4,0 0.6,0 1.9,0 3.3,0.9 3.3,2.8 v 12.2 c 0,3 -0.6,4.3 -3.9,4.8 -12,2.2 -19.2,3.1 -35.9,3.1 -18.5,0 -44.8,-10 -44.8,-46.4 v -13.7 c 0,-28.9 16.1,-47 44.4,-47 28.5,0 44,19.4 44,47 v 10.4 c 0.1,3 -1,4.6 -3.6,4.6 z m -20.9,-18.1 c 0,-14.4 -8,-22.8 -19.4,-22.8 -11.4,0 -19.8,8.1 -19.8,22.8 v 0.7 h 39.2 z"
   id="path6"
   inkscape:connector-curvature="0"
   style="fill:#ffffff;fill-opacity:1" />
		<path
   class="st1"
   d="m 16404.311,8617.9241 h -17 c -2,0 -3.7,-1.8 -3.7,-3.9 v -60.3 c 0,-16.1 -1.5,-20.7 -15.7,-20.7 -6.3,0 -13.1,2.6 -20.9,6.7 v 74.4 c 0,2 -1.7,3.9 -3.7,3.9 h -17 c -2,0 -3.7,-1.8 -3.7,-3.9 v -96.8 c 0,-2 1.7,-3.7 3.7,-3.7 h 16.1 c 2,0 3.7,1.7 3.7,3.7 v 3.9 c 10.7,-6.8 17.8,-8.9 30,-8.9 26.6,0 32,17.9 32,41.4 v 60.3 c -0.1,2.1 -1.7,3.9 -3.8,3.9 z"
   id="path8"
   inkscape:connector-curvature="0"
   style="fill:#ffffff;fill-opacity:1" />
		<path
   class="st1"
   d="m 16509.811,8614.6241 c -11.5,3 -25.3,4.8 -37.2,4.8 -29.8,0 -44.2,-17.6 -44.2,-46.4 v -14.2 c 0,-28.9 14.4,-46.4 44.2,-46.4 4.4,0 10.9,0.4 17.8,1.3 v -32.7 c 0,-2 1.7,-3.7 3.7,-3.7 h 17 c 2,0 3.7,1.7 3.7,3.7 v 128.8 c 0,2.6 -0.8,3.7 -5,4.8 z m -19.4,-81.1 c -5.2,-0.7 -13.3,-1.3 -17.8,-1.3 -15.9,0 -19.8,11.3 -19.8,26.5 v 14.2 c 0,15.2 3.9,26.5 19.8,26.5 6.7,0 14.2,-0.6 17.8,-1.3 z"
   id="path10"
   inkscape:connector-curvature="0"
   style="fill:#ffffff;fill-opacity:1" />
		<path
   class="st1"
   d="m 16620.411,8574.2241 h -60.3 v 0.6 c 0,10.7 4.4,23.5 22.2,23.5 13.5,0 26.3,-1.1 34,-1.9 0.2,0 0.4,0 0.6,0 1.8,0 3.3,0.9 3.3,2.8 v 12.2 c 0,3 -0.6,4.3 -3.9,4.8 -12,2.2 -19.2,3.1 -35.9,3.1 -18.5,0 -44.8,-10 -44.8,-46.4 v -13.7 c 0,-28.9 16.1,-47 44.4,-47 28.5,0 44,19.4 44,47 v 10.4 c 0.1,3 -1,4.6 -3.6,4.6 z m -20.9,-18.1 c 0,-14.4 -8,-22.8 -19.4,-22.8 -11.5,0 -19.8,8.1 -19.8,22.8 v 0.7 h 39.2 z"
   id="path12"
   inkscape:connector-curvature="0"
   style="fill:#ffffff;fill-opacity:1" />
		<path
   class="st1"
   d="m 16695.011,8533.0241 c -10,0 -17.8,2.6 -25.5,6.7 v 74.4 c 0,2 -1.7,3.9 -3.7,3.9 h -17 c -2,0 -3.7,-1.8 -3.7,-3.9 v -96.8 c 0,-2 1.7,-3.7 3.7,-3.7 h 16.1 c 2,0 3.7,1.7 3.7,3.7 v 3.9 c 9.1,-7 19.1,-8.9 26.5,-8.9 2,0 3.7,1.7 3.7,3.7 v 13.3 c -0.1,2 -1.8,3.7 -3.8,3.7 z"
   id="path14"
   inkscape:connector-curvature="0"
   style="fill:#ffffff;fill-opacity:1" />
	</g>
	<g
   id="g40"
   transform="translate(84.906,-41.5759)">
		<polygon
   class="st2"
   points="15984.9,8525.6 15986.9,8525.6 15986.9,8523.6 15986.9,8505 15986.9,8503 15984.9,8503 15966.3,8503 15964.3,8503 15964.3,8505 15964.3,8523.6 15964.3,8525.6 15966.3,8525.6 "
   id="polygon18"
   style="fill:#46e3b7" />
		<path
   class="st2"
   d="m 15906.5,8503 c -7.2,0 -14.2,1.4 -20.8,4.2 -6.4,2.7 -12.1,6.6 -17,11.5 -4.9,4.9 -8.8,10.6 -11.5,17 -2.8,6.6 -4.2,13.6 -4.2,20.8 v 78.4 2 h 2 18.6 2 v -2 -78.7 c 0.4,-8.1 3.8,-15.7 9.5,-21.3 5.8,-5.7 13.4,-9 21.5,-9.3 h 41.2 2 v -2 -18.6 -2 h -2 z"
   id="path20"
   inkscape:connector-curvature="0"
   style="fill:#46e3b7" />
		<polygon
   class="st2"
   points="16022,8599.8 16024,8599.8 16024,8597.8 16024,8579.2 16024,8577.2 16022,8577.2 16003.4,8577.2 16001.4,8577.2 16001.4,8579.2 16001.4,8597.8 16001.4,8599.8 16003.4,8599.8 "
   id="polygon22"
   style="fill:#46e3b7" />
		<polygon
   class="st2"
   points="16022,8562.7 16024,8562.7 16024,8560.7 16024,8542.1 16024,8540.1 16022,8540.1 16003.4,8540.1 16001.4,8540.1 16001.4,8542.1 16001.4,8560.7 16001.4,8562.7 16003.4,8562.7 "
   id="polygon24"
   style="fill:#46e3b7" />
		<polygon
   class="st2"
   points="16003.4,8525.6 16022,8525.6 16024,8525.6 16024,8523.6 16024,8505 16024,8503 16022,8503 16003.4,8503 16001.4,8503 16001.4,8505 16001.4,8523.6 16001.4,8525.6 "
   id="polygon26"
   style="fill:#46e3b7" />
		<polygon
   class="st2"
   points="16022,8636.9 16024,8636.9 16024,8634.9 16024,8616.3 16024,8614.3 16022,8614.3 16003.4,8614.3 16001.4,8614.3 16001.4,8616.3 16001.4,8634.9 16001.4,8636.9 16003.4,8636.9 "
   id="polygon28"
   style="fill:#46e3b7" />
		<polygon
   class="st2"
   points="16022,8674 16024,8674 16024,8672 16024,8653.4 16024,8651.4 16022,8651.4 16003.4,8651.4 16001.4,8651.4 16001.4,8653.4 16001.4,8672 16001.4,8674 16003.4,8674 "
   id="polygon30"
   style="fill:#46e3b7" />
		<polygon
   class="st2"
   points="15984.9,8674 15986.9,8674 15986.9,8672 15986.9,8653.4 15986.9,8651.4 15984.9,8651.4 15966.3,8651.4 15964.3,8651.4 15964.3,8653.4 15964.3,8672 15964.3,8674 15966.3,8674 "
   id="polygon32"
   style="fill:#46e3b7" />
		<polygon
   class="st2"
   points="15947.8,8674 15949.8,8674 15949.8,8672 15949.8,8653.4 15949.8,8651.4 15947.8,8651.4 15929.2,8651.4 15927.2,8651.4 15927.2,8653.4 15927.2,8672 15927.2,8674 15929.2,8674 "
   id="polygon34"
   style="fill:#46e3b7" />
		<polygon
   class="st2"
   points="15910.7,8674 15912.7,8674 15912.7,8672 15912.7,8653.4 15912.7,8651.4 15910.7,8651.4 15892.1,8651.4 15890.1,8651.4 15890.1,8653.4 15890.1,8672 15890.1,8674 15892.1,8674 "
   id="polygon36"
   style="fill:#46e3b7" />
		<polygon
   class="st2"
   points="15873.6,8674 15875.6,8674 15875.6,8672 15875.6,8653.4 15875.6,8651.4 15873.6,8651.4 15855,8651.4 15853,8651.4 15853,8653.4 15853,8672 15853,8674 15855,8674 "
   id="polygon38"
   style="fill:#46e3b7" />
	</g>
</g>
</svg>